<svg xmlns="http://www.w3.org/2000/svg" width="51" height="51" viewBox="0 0 51 51"><g transform="translate(6.5 4.5)"><circle cx="25" cy="25" r="25" transform="translate(-6 -4)" fill="#fff" stroke="#111" stroke-width="1"/><path d="M17.71,6.783,11.383.3a.971.971,0,0,0-1.4,0,1.031,1.031,0,0,0,0,1.433l4.639,4.756H.989a1.014,1.014,0,0,0,0,2.027H14.624L9.985,13.27a1.031,1.031,0,0,0,0,1.433.971.971,0,0,0,1.4,0L17.71,8.217a1.031,1.031,0,0,0,0-1.433Zm0,0" transform="translate(10 14)" fill="#111"/></g></svg>